<?xml version="1.0" encoding="utf-8"?>
<!-- Generator: Adobe Illustrator 19.0.0, SVG Export Plug-In . SVG Version: 6.00 Build 0)  -->
<svg version="1.1" id="Layer_1" xmlns="http://www.w3.org/2000/svg" xmlns:xlink="http://www.w3.org/1999/xlink" x="0px" y="0px"
	 viewBox="0 0 222.2 120" style="enable-background:new 0 0 222.2 120;" xml:space="preserve">
<style type="text/css">
	.st0{fill:#6059A9;}
	.st1{display:none;}
	.st2{display:inline;}
	.st3{fill:#FFD7DD;}
	.st4{fill:#F4A2AB;}
	.st5{fill:#E58391;}
	.st6{fill:none;}
	.st7{display:inline;fill:#F4A2AB;}
	.st8{display:inline;fill:#FFD7DD;}
	.st9{fill:none;stroke:#F4A2AB;stroke-width:3;stroke-miterlimit:10;}
	.st10{fill:#FFF5F5;}
	.st11{display:none;fill:#FFD7DD;}
	.st12{display:none;fill:none;stroke:#F4A2AB;stroke-width:3;stroke-miterlimit:10;}
	.st13{display:none;fill:#E58391;}
	.st14{display:none;fill:#6059A9;}
	.st15{display:inline;fill:#E58391;}
	.st16{font-family:'Montserrat-Bold';}
	.st17{font-size:39.596px;}
	.st18{fill:#FFD7DD;stroke:#6059A9;stroke-width:3;stroke-miterlimit:10;}
	.st19{font-size:25px;}
	.st20{display:inline;fill:#FFD7DD;stroke:#6059A9;stroke-width:4;stroke-miterlimit:10;}
	.st21{font-family:'KozGoPr6N-Bold-90ms-RKSJ-H';}
	.st22{font-size:27.6876px;}
	.st23{font-family:'Roboto-Black';}
	.st24{font-size:35.8882px;}
</style>
<g id="XMLID_4_">
	<g id="XMLID_236_">
		<path id="XMLID_239_" class="st0" d="M206.6,120h12.5c1.1,0,2.1-0.8,2.1-1.9l0,0c0-1-0.9-1.9-2.1-1.9h-12.5
			c-1.1,0-2.1,0.8-2.1,1.9l0,0C204.5,119.2,205.4,120,206.6,120z"/>
		<path id="XMLID_238_" class="st0" d="M8,120H1.9c-1,0-1.9-0.8-1.9-1.9h0c0-1,0.8-1.9,1.9-1.9H8c1,0,1.9,0.8,1.9,1.9l0,0
			C9.9,119.2,9.1,120,8,120z"/>
		<path id="XMLID_237_" class="st0" d="M195.1,120H17.9c-1,0-1.9-0.8-1.9-1.9v0c0-1,0.8-1.9,1.9-1.9h177.2c1,0,1.9,0.8,1.9,1.9v0
			C196.9,119.2,196.1,120,195.1,120z"/>
	</g>
	<g id="XMLID_232_">
		<path id="XMLID_235_" class="st0" d="M206.6,120h12.5c1.1,0,2.1-0.8,2.1-1.9l0,0c0-1-0.9-1.9-2.1-1.9h-12.5
			c-1.1,0-2.1,0.8-2.1,1.9l0,0C204.5,119.2,205.4,120,206.6,120z"/>
		<path id="XMLID_234_" class="st0" d="M8,120H1.9c-1,0-1.9-0.8-1.9-1.9h0c0-1,0.8-1.9,1.9-1.9H8c1,0,1.9,0.8,1.9,1.9l0,0
			C9.9,119.2,9.1,120,8,120z"/>
		<path id="XMLID_233_" class="st0" d="M195.1,120H17.9c-1,0-1.9-0.8-1.9-1.9v0c0-1,0.8-1.9,1.9-1.9h177.2c1,0,1.9,0.8,1.9,1.9v0
			C196.9,119.2,196.1,120,195.1,120z"/>
	</g>
</g>
<g id="column_2_" class="st1">
	<g id="column" class="st2">
		<path id="XMLID_352_" class="st3" d="M112.1,71V51c0-1.1-0.9-2-2-2h-67v67h108V75c0-1.1-0.9-2-2-2h-35C113,73,112.1,72.1,112.1,71
			z"/>
		<g id="XMLID_108_">
			<g id="XMLID_488_">
				<g id="XMLID_495_">
					<path id="XMLID_508_" class="st0" d="M48.1,66.6v14.7c0,1.4,1.1,2.4,2.4,2.4h19.6c1.4,0,2.4-1.1,2.4-2.4V66.6
						c0-1.4-1.1-2.4-2.4-2.4H50.5C49.2,64.1,48.1,65.2,48.1,66.6z M68.9,81.2H51.8c-0.7,0-1.2-0.5-1.2-1.2V67.8
						c0-0.7,0.5-1.2,1.2-1.2h17.1c0.7,0,1.2,0.5,1.2,1.2V80C70.1,80.7,69.6,81.2,68.9,81.2z"/>
					<path id="XMLID_505_" class="st0" d="M82.4,66.6v14.7c0,1.4,1.1,2.4,2.4,2.4h19.6c1.4,0,2.4-1.1,2.4-2.4V66.6
						c0-1.4-1.1-2.4-2.4-2.4H84.8C83.5,64.1,82.4,65.2,82.4,66.6z M103.2,81.2H86c-0.7,0-1.2-0.5-1.2-1.2V67.8
						c0-0.7,0.5-1.2,1.2-1.2h17.1c0.7,0,1.2,0.5,1.2,1.2V80C104.4,80.7,103.8,81.2,103.2,81.2z"/>
					<path id="XMLID_504_" class="st0" d="M59.1,90.2h-9.8c-0.7,0-1.2-0.5-1.2-1.2v0c0-0.7,0.5-1.2,1.2-1.2h9.8
						c0.7,0,1.2,0.5,1.2,1.2v0C60.3,89.7,59.8,90.2,59.1,90.2z"/>
					<path id="XMLID_503_" class="st0" d="M71.3,95.1h-22c-0.7,0-1.2-0.5-1.2-1.2v0c0-0.7,0.5-1.2,1.2-1.2h22c0.7,0,1.2,0.5,1.2,1.2
						v0C72.5,94.6,72,95.1,71.3,95.1z"/>
					<path id="XMLID_502_" class="st0" d="M71.3,100h-22c-0.7,0-1.2-0.5-1.2-1.2v0c0-0.7,0.5-1.2,1.2-1.2h22c0.7,0,1.2,0.5,1.2,1.2
						v0C72.5,99.5,72,100,71.3,100z"/>
					<path id="XMLID_501_" class="st0" d="M93.4,90.2h-9.8c-0.7,0-1.2-0.5-1.2-1.2v0c0-0.7,0.5-1.2,1.2-1.2h9.8
						c0.7,0,1.2,0.5,1.2,1.2v0C94.6,89.7,94.1,90.2,93.4,90.2z"/>
					<path id="XMLID_500_" class="st0" d="M105.6,95.1h-22c-0.7,0-1.2-0.5-1.2-1.2v0c0-0.7,0.5-1.2,1.2-1.2h22
						c0.7,0,1.2,0.5,1.2,1.2v0C106.8,94.6,106.3,95.1,105.6,95.1z"/>
					<path id="XMLID_499_" class="st0" d="M105.6,100h-22c-0.7,0-1.2-0.5-1.2-1.2v0c0-0.7,0.5-1.2,1.2-1.2h22c0.7,0,1.2,0.5,1.2,1.2
						v0C106.8,99.5,106.3,100,105.6,100z"/>
					<path id="XMLID_498_" class="st0" d="M126.8,90.2H117c-0.7,0-1.2-0.5-1.2-1.2v0c0-0.7,0.5-1.2,1.2-1.2h9.8
						c0.7,0,1.2,0.5,1.2,1.2v0C128,89.7,127.5,90.2,126.8,90.2z"/>
					<path id="XMLID_497_" class="st0" d="M139,95.1h-22c-0.7,0-1.2-0.5-1.2-1.2v0c0-0.7,0.5-1.2,1.2-1.2h22c0.7,0,1.2,0.5,1.2,1.2
						v0C140.3,94.6,139.7,95.1,139,95.1z"/>
					<path id="XMLID_496_" class="st0" d="M139,100h-22c-0.7,0-1.2-0.5-1.2-1.2v0c0-0.7,0.5-1.2,1.2-1.2h22c0.7,0,1.2,0.5,1.2,1.2v0
						C140.3,99.5,139.7,100,139,100z"/>
				</g>
				<g id="XMLID_489_">
					<path id="XMLID_494_" class="st0" d="M38.2,103V91.3c0-1.1-0.9-2-2-2l0,0c-1.1,0-2,0.8-2,2V103c0,1.1,0.9,2,2,2l0,0
						C37.3,104.9,38.2,104.1,38.2,103z"/>
					<path id="XMLID_493_" class="st0" d="M108,49.4H35.7v-4H108c1.1,0,2,0.9,2,2v0C110,48.5,109.1,49.4,108,49.4z"/>
					<circle id="XMLID_492_" class="st0" cx="51.1" cy="37.4" r="2"/>
					<circle id="XMLID_491_" class="st0" cx="57.1" cy="37.4" r="2"/>
					<circle id="XMLID_490_" class="st0" cx="63.1" cy="37.4" r="2"/>
				</g>
			</g>
			<g id="XMLID_465_">
				<g id="XMLID_472_">
					<path id="XMLID_485_" class="st4" d="M48.1,66.6v14.7c0,1.4,1.1,2.4,2.4,2.4h19.6c1.4,0,2.4-1.1,2.4-2.4V66.6
						c0-1.4-1.1-2.4-2.4-2.4H50.5C49.2,64.1,48.1,65.2,48.1,66.6z M68.9,81.2H51.8c-0.7,0-1.2-0.5-1.2-1.2V67.8
						c0-0.7,0.5-1.2,1.2-1.2h17.1c0.7,0,1.2,0.5,1.2,1.2V80C70.1,80.7,69.6,81.2,68.9,81.2z"/>
					<path id="XMLID_482_" class="st4" d="M82.4,66.6v14.7c0,1.4,1.1,2.4,2.4,2.4h19.6c1.4,0,2.4-1.1,2.4-2.4V66.6
						c0-1.4-1.1-2.4-2.4-2.4H84.8C83.5,64.1,82.4,65.2,82.4,66.6z M103.2,81.2H86c-0.7,0-1.2-0.5-1.2-1.2V67.8
						c0-0.7,0.5-1.2,1.2-1.2h17.1c0.7,0,1.2,0.5,1.2,1.2V80C104.4,80.7,103.8,81.2,103.2,81.2z"/>
					<path id="XMLID_481_" class="st5" d="M59.1,90.2h-9.8c-0.7,0-1.2-0.5-1.2-1.2v0c0-0.7,0.5-1.2,1.2-1.2h9.8
						c0.7,0,1.2,0.5,1.2,1.2v0C60.3,89.7,59.8,90.2,59.1,90.2z"/>
					<path id="XMLID_480_" class="st5" d="M71.3,95.1h-22c-0.7,0-1.2-0.5-1.2-1.2v0c0-0.7,0.5-1.2,1.2-1.2h22c0.7,0,1.2,0.5,1.2,1.2
						v0C72.5,94.6,72,95.1,71.3,95.1z"/>
					<path id="XMLID_479_" class="st5" d="M71.3,100h-22c-0.7,0-1.2-0.5-1.2-1.2v0c0-0.7,0.5-1.2,1.2-1.2h22c0.7,0,1.2,0.5,1.2,1.2
						v0C72.5,99.5,72,100,71.3,100z"/>
					<path id="XMLID_478_" class="st5" d="M93.4,90.2h-9.8c-0.7,0-1.2-0.5-1.2-1.2v0c0-0.7,0.5-1.2,1.2-1.2h9.8
						c0.7,0,1.2,0.5,1.2,1.2v0C94.6,89.7,94.1,90.2,93.4,90.2z"/>
					<path id="XMLID_477_" class="st5" d="M105.6,95.1h-22c-0.7,0-1.2-0.5-1.2-1.2v0c0-0.7,0.5-1.2,1.2-1.2h22
						c0.7,0,1.2,0.5,1.2,1.2v0C106.8,94.6,106.3,95.1,105.6,95.1z"/>
					<path id="XMLID_476_" class="st5" d="M105.6,100h-22c-0.7,0-1.2-0.5-1.2-1.2v0c0-0.7,0.5-1.2,1.2-1.2h22c0.7,0,1.2,0.5,1.2,1.2
						v0C106.8,99.5,106.3,100,105.6,100z"/>
					<path id="XMLID_475_" class="st5" d="M126.8,90.2H117c-0.7,0-1.2-0.5-1.2-1.2v0c0-0.7,0.5-1.2,1.2-1.2h9.8
						c0.7,0,1.2,0.5,1.2,1.2v0C128,89.7,127.5,90.2,126.8,90.2z"/>
					<path id="XMLID_474_" class="st5" d="M139,95.1h-22c-0.7,0-1.2-0.5-1.2-1.2v0c0-0.7,0.5-1.2,1.2-1.2h22c0.7,0,1.2,0.5,1.2,1.2
						v0C140.3,94.6,139.7,95.1,139,95.1z"/>
					<path id="XMLID_473_" class="st5" d="M139,100h-22c-0.7,0-1.2-0.5-1.2-1.2v0c0-0.7,0.5-1.2,1.2-1.2h22c0.7,0,1.2,0.5,1.2,1.2v0
						C140.3,99.5,139.7,100,139,100z"/>
				</g>
				<g id="XMLID_466_">
					<path id="XMLID_471_" class="st0" d="M38.2,103V91.3c0-1.1-0.9-2-2-2l0,0c-1.1,0-2,0.8-2,2V103c0,1.1,0.9,2,2,2l0,0
						C37.3,104.9,38.2,104.1,38.2,103z"/>
					<path id="XMLID_470_" class="st0" d="M108,49.4H35.7v-4H108c1.1,0,2,0.9,2,2v0C110,48.5,109.1,49.4,108,49.4z"/>
					<circle id="XMLID_469_" class="st0" cx="51.1" cy="37.4" r="2"/>
					<circle id="XMLID_468_" class="st0" cx="57.1" cy="37.4" r="2"/>
					<circle id="XMLID_467_" class="st0" cx="63.1" cy="37.4" r="2"/>
				</g>
			</g>
		</g>
		<g id="XMLID_289_">
			<g id="XMLID_308_">
				<rect id="XMLID_290_" x="121.1" y="18" class="st3" width="85" height="49"/>
				<rect id="XMLID_312_" x="194.9" y="3" class="st0" width="0.4" height="0.4"/>
				<g id="XMLID_310_">
					<rect id="XMLID_311_" x="117.1" y="3" class="st6" width="89" height="12"/>
					<rect id="XMLID_325_" x="117.1" y="18" class="st6" width="89" height="39"/>
					<path id="XMLID_335_" class="st0" d="M114.1,5v60c0,2.8,2.2,5,5,5h85c2.8,0,5-2.2,5-5V5c0-2.8-2.2-5-5-5h-85
						C116.3,0,114.1,2.2,114.1,5z M206.1,5.5V15h-89V5.5c0-1.4,1.1-2.5,2.5-2.5h84C205,3,206.1,4.1,206.1,5.5z M117.1,64.5V18h89
						v46.5c0,1.4-1.1,2.5-2.5,2.5h-84C118.2,67,117.1,65.9,117.1,64.5z"/>
				</g>
				<circle id="XMLID_334_" class="st0" cx="124.9" cy="8.8" r="2"/>
				<circle id="XMLID_339_" class="st0" cx="130.9" cy="8.8" r="2"/>
				<circle id="XMLID_340_" class="st0" cx="136.9" cy="8.8" r="2"/>
			</g>
			<g id="XMLID_314_">
				<path id="XMLID_330_" class="st4" d="M122.5,26.9v10.5c0,1,0.8,1.8,1.8,1.8h14c1,0,1.8-0.8,1.8-1.8V26.9c0-1-0.8-1.8-1.8-1.8
					h-14C123.3,25.1,122.5,25.9,122.5,26.9z M137.4,37.4h-12.3c-0.5,0-0.9-0.4-0.9-0.9v-8.8c0-0.5,0.4-0.9,0.9-0.9h12.3
					c0.5,0,0.9,0.4,0.9,0.9v8.8C138.3,37,137.9,37.4,137.4,37.4z"/>
				<path id="XMLID_323_" class="st5" d="M149.9,29.5h-7c-0.5,0-0.9-0.4-0.9-0.9v0c0-0.5,0.4-0.9,0.9-0.9h7c0.5,0,0.9,0.4,0.9,0.9v0
					C150.8,29.1,150.4,29.5,149.9,29.5z"/>
				<path id="XMLID_322_" class="st5" d="M158.7,33h-15.7c-0.5,0-0.9-0.4-0.9-0.9l0,0c0-0.5,0.4-0.9,0.9-0.9h15.7
					c0.5,0,0.9,0.4,0.9,0.9l0,0C159.5,32.6,159.1,33,158.7,33z"/>
				<path id="XMLID_321_" class="st5" d="M158.7,36.5h-15.7c-0.5,0-0.9-0.4-0.9-0.9l0,0c0-0.5,0.4-0.9,0.9-0.9h15.7
					c0.5,0,0.9,0.4,0.9,0.9l0,0C159.5,36.1,159.1,36.5,158.7,36.5z"/>
			</g>
			<g id="XMLID_313_">
				<path id="XMLID_318_" class="st4" d="M164.5,26.9v10.5c0,1,0.8,1.8,1.8,1.8h14c1,0,1.8-0.8,1.8-1.8V26.9c0-1-0.8-1.8-1.8-1.8
					h-14C165.3,25.1,164.5,25.9,164.5,26.9z M179.4,37.4h-12.3c-0.5,0-0.9-0.4-0.9-0.9v-8.8c0-0.5,0.4-0.9,0.9-0.9h12.3
					c0.5,0,0.9,0.4,0.9,0.9v8.8C180.3,37,179.9,37.4,179.4,37.4z"/>
				<path id="XMLID_317_" class="st5" d="M191.9,29.5h-7c-0.5,0-0.9-0.4-0.9-0.9v0c0-0.5,0.4-0.9,0.9-0.9h7c0.5,0,0.9,0.4,0.9,0.9v0
					C192.8,29.1,192.4,29.5,191.9,29.5z"/>
				<path id="XMLID_316_" class="st5" d="M200.7,33h-15.7c-0.5,0-0.9-0.4-0.9-0.9l0,0c0-0.5,0.4-0.9,0.9-0.9h15.7
					c0.5,0,0.9,0.4,0.9,0.9l0,0C201.5,32.6,201.2,33,200.7,33z"/>
				<path id="XMLID_315_" class="st5" d="M200.7,36.5h-15.7c-0.5,0-0.9-0.4-0.9-0.9l0,0c0-0.5,0.4-0.9,0.9-0.9h15.7
					c0.5,0,0.9,0.4,0.9,0.9l0,0C201.5,36.1,201.2,36.5,200.7,36.5z"/>
			</g>
			<g id="XMLID_342_">
				<path id="XMLID_346_" class="st4" d="M122.5,47.1v10.5c0,1,0.8,1.8,1.8,1.8h14c1,0,1.8-0.8,1.8-1.8V47.1c0-1-0.8-1.8-1.8-1.8
					h-14C123.3,45.4,122.5,46.2,122.5,47.1z M137.4,57.6h-12.3c-0.5,0-0.9-0.4-0.9-0.9V48c0-0.5,0.4-0.9,0.9-0.9h12.3
					c0.5,0,0.9,0.4,0.9,0.9v8.8C138.3,57.2,137.9,57.6,137.4,57.6z"/>
				<path id="XMLID_345_" class="st5" d="M149.9,49.8h-7c-0.5,0-0.9-0.4-0.9-0.9v0c0-0.5,0.4-0.9,0.9-0.9h7c0.5,0,0.9,0.4,0.9,0.9v0
					C150.8,49.4,150.4,49.8,149.9,49.8z"/>
				<path id="XMLID_344_" class="st5" d="M158.7,53.3h-15.7c-0.5,0-0.9-0.4-0.9-0.9l0,0c0-0.5,0.4-0.9,0.9-0.9h15.7
					c0.5,0,0.9,0.4,0.9,0.9l0,0C159.5,52.9,159.1,53.3,158.7,53.3z"/>
				<path id="XMLID_343_" class="st5" d="M158.7,56.8h-15.7c-0.5,0-0.9-0.4-0.9-0.9l0,0c0-0.5,0.4-0.9,0.9-0.9h15.7
					c0.5,0,0.9,0.4,0.9,0.9l0,0C159.5,56.4,159.1,56.8,158.7,56.8z"/>
			</g>
			<g id="XMLID_324_">
				<path id="XMLID_337_" class="st4" d="M164.5,47.1v10.5c0,1,0.8,1.8,1.8,1.8h14c1,0,1.8-0.8,1.8-1.8V47.1c0-1-0.8-1.8-1.8-1.8
					h-14C165.3,45.4,164.5,46.2,164.5,47.1z M179.4,57.6h-12.3c-0.5,0-0.9-0.4-0.9-0.9V48c0-0.5,0.4-0.9,0.9-0.9h12.3
					c0.5,0,0.9,0.4,0.9,0.9v8.8C180.3,57.2,179.9,57.6,179.4,57.6z"/>
				<path id="XMLID_329_" class="st5" d="M191.9,49.8h-7c-0.5,0-0.9-0.4-0.9-0.9v0c0-0.5,0.4-0.9,0.9-0.9h7c0.5,0,0.9,0.4,0.9,0.9v0
					C192.8,49.4,192.4,49.8,191.9,49.8z"/>
				<path id="XMLID_328_" class="st5" d="M200.7,53.3h-15.7c-0.5,0-0.9-0.4-0.9-0.9l0,0c0-0.5,0.4-0.9,0.9-0.9h15.7
					c0.5,0,0.9,0.4,0.9,0.9l0,0C201.5,52.9,201.2,53.3,200.7,53.3z"/>
				<path id="XMLID_327_" class="st5" d="M200.7,56.8h-15.7c-0.5,0-0.9-0.4-0.9-0.9l0,0c0-0.5,0.4-0.9,0.9-0.9h15.7
					c0.5,0,0.9,0.4,0.9,0.9l0,0C201.5,56.4,201.2,56.8,200.7,56.8z"/>
			</g>
		</g>
	</g>
	<g id="XMLID_349_" class="st2">
		<path id="XMLID_350_" class="st0" d="M108.1,25h-64c-5.5,0-10,4.5-10,10v43.9c0,1,0.7,1.9,1.7,2.1c1.3,0.2,2.3-0.8,2.3-2V35
			c0-3.3,2.7-6,6-6h64c1.1,0,2-0.9,2-2v0C110.1,25.9,109.2,25,108.1,25z"/>
		<path id="XMLID_351_" class="st0" d="M151.1,76v41h4V76c0-1.1-0.9-2-2-2h0C152,74,151.1,74.9,151.1,76z"/>
	</g>
	<path id="XMLID_309_" class="st7" d="M139.1,73v7c0,0.7-1,1-1.7,1h-17.9c-0.7,0-1.4-0.3-1.4-1v-7h-2v8.2c0,1.4,0.8,2.8,2.2,2.8
		h20.4c1.4,0,2.4-1.4,2.4-2.8V73H139.1z"/>
</g>
<g id="FORM" class="st1">
	<rect id="XMLID_2_" x="59.6" y="30" class="st8" width="89" height="86"/>
	<path id="XMLID_14_" class="st0" d="M131.6,16L131.6,16c0,1.1,0.9,2,2,2h13c1.1,0,2,0.9,2,2v96h-94V20c0-1.1,0.9-2,2-2h13
		c1.1,0,2-0.9,2-2v0c0-1.1-0.9-2-2-2h-17c-1.1,0-2,0.9-2,2v102c0,1.1,0.9,2,2,2h98c1.1,0,2-0.9,2-2V16c0-1.1-0.9-2-2-2h-17
		C132.5,14,131.6,14.9,131.6,16z"/>
	<path id="XMLID_13_" class="st0" d="M110.1,6c-0.8,0-1.4-0.5-1.7-1.2c-0.8-2.6-3.3-5-6.3-5s-5.6,2.4-6.3,5C95.5,5.5,94.9,6,94.1,6
		H80.9c-1,0-1.8,0.8-1.8,1.8v16.5c0,1,0.8,1.8,1.8,1.8h41.5c1,0,1.8-0.8,1.8-1.8V7.8c0-1-0.8-1.8-1.8-1.8H110.1z M119.3,23H83.9
		c-1,0-1.8-0.8-1.8-1.8V10.8c0-1,0.8-1.8,1.8-1.8h12.4c1,0,1.9-0.8,1.8-1.8c0-0.8,0.2-1.8,0.9-2.7c0.2-0.3,0.5-0.5,0.8-0.7
		c3.1-1.7,6.2,0.4,6.2,3.3c0,0,0,0,0,0c0,1,0.7,1.9,1.7,1.9h11.6c1,0,1.8,0.8,1.8,1.8v10.5C121.1,22.2,120.3,23,119.3,23z"/>
	<g id="XMLID_3_" class="st2">
		<path id="XMLID_5_" class="st9" d="M91.3,64.2H70.9c-1.3,0-2.3-1-2.3-2.3V41.5c0-1.3,1-2.3,2.3-2.3h20.4c1.3,0,2.3,1,2.3,2.3v20.4
			C93.6,63.2,92.6,64.2,91.3,64.2z"/>
		<path id="XMLID_26_" class="st5" d="M81.1,44.1c-2.5,0-4.5,2-4.5,4.5c0,2.5,2,4.5,4.5,4.5c2.5,0,4.5-2,4.5-4.5
			C85.6,46.1,83.6,44.1,81.1,44.1z M81.1,51.1c-1.4,0-2.5-1.1-2.5-2.5c0-1.4,1.1-2.5,2.5-2.5s2.5,1.1,2.5,2.5
			C83.6,50,82.5,51.1,81.1,51.1z"/>
		<path id="XMLID_28_" class="st5" d="M81.1,54.2c3.9,0,6.1,3,6.1,6.8h2.4c0-4.8-3.8-9.5-8.5-9.5c-4.7,0-8.5,4.7-8.5,9.5H75
			C75,57.2,77.2,54.2,81.1,54.2z"/>
		<path id="XMLID_16_" class="st5" d="M121,46.3h-15.5c-0.8,0-1.5-0.7-1.5-1.5v0c0-0.8,0.7-1.5,1.5-1.5H121c0.8,0,1.5,0.7,1.5,1.5v0
			C122.5,45.6,121.8,46.3,121,46.3z"/>
		<path id="XMLID_17_" class="st5" d="M135.9,53.3h-30.8c-0.8,0-1.5-0.7-1.5-1.5v0c0-0.8,0.7-1.5,1.5-1.5h30.8
			c0.8,0,1.5,0.7,1.5,1.5v0C137.4,52.7,136.7,53.3,135.9,53.3z"/>
		<path id="XMLID_21_" class="st5" d="M135.9,60.4h-30.8c-0.8,0-1.5-0.7-1.5-1.5v0c0-0.8,0.7-1.5,1.5-1.5h30.8
			c0.8,0,1.5,0.7,1.5,1.5v0C137.4,59.7,136.7,60.4,135.9,60.4z"/>
	</g>
	<g id="XMLID_6_" class="st2">
		<path id="XMLID_20_" class="st9" d="M91.3,102.2H70.9c-1.3,0-2.3-1-2.3-2.3V79.5c0-1.3,1-2.3,2.3-2.3h20.4c1.3,0,2.3,1,2.3,2.3
			v20.4C93.6,101.2,92.6,102.2,91.3,102.2z"/>
		<path id="XMLID_15_" class="st5" d="M81.1,82.1c-2.5,0-4.5,2-4.5,4.5c0,2.5,2,4.5,4.5,4.5c2.5,0,4.5-2,4.5-4.5
			C85.6,84.1,83.6,82.1,81.1,82.1z M81.1,89.1c-1.4,0-2.5-1.1-2.5-2.5s1.1-2.5,2.5-2.5s2.5,1.1,2.5,2.5S82.5,89.1,81.1,89.1z"/>
		<path id="XMLID_11_" class="st5" d="M81.1,92.2c3.9,0,6.1,3,6.1,6.8h2.4c0-4.8-3.8-9.5-8.5-9.5c-4.7,0-8.5,4.7-8.5,9.5H75
			C75,95.2,77.2,92.2,81.1,92.2z"/>
		<path id="XMLID_10_" class="st5" d="M121,84.3h-15.5c-0.8,0-1.5-0.7-1.5-1.5l0,0c0-0.8,0.7-1.5,1.5-1.5H121c0.8,0,1.5,0.7,1.5,1.5
			l0,0C122.5,83.6,121.8,84.3,121,84.3z"/>
		<path id="XMLID_7_" class="st5" d="M135.9,91.3h-30.8c-0.8,0-1.5-0.7-1.5-1.5l0,0c0-0.8,0.7-1.5,1.5-1.5h30.8
			c0.8,0,1.5,0.7,1.5,1.5l0,0C137.4,90.7,136.7,91.3,135.9,91.3z"/>
		<path id="XMLID_8_" class="st5" d="M135.9,98.4h-30.8c-0.8,0-1.5-0.7-1.5-1.5v0c0-0.8,0.7-1.5,1.5-1.5h30.8c0.8,0,1.5,0.7,1.5,1.5
			v0C137.4,97.7,136.7,98.4,135.9,98.4z"/>
	</g>
	<g id="XMLID_24_" class="st2">
		<path id="XMLID_29_" class="st0" d="M143.9,14h-16.8v4H144c2.5,0,4.1,2.1,4.1,4.6V116h-94V22.6c0-2.5,2.6-4.6,5.1-4.6h14.9v-4
			H59.3c-4.8,0-9.2,3.9-9.2,8.7V120h102V22.7C152.1,17.9,148.7,14,143.9,14z"/>
		<path id="XMLID_38_" class="st0" d="M120.2,6l-10.9,0c-0.5,0-0.9-0.3-1-0.8c-0.6-3-3.2-5.2-6.3-5.2c-3.1,0-5.8,2.2-6.3,5.2
			c-0.1,0.5-0.5,0.8-1,0.8C92.4,6,86,6,82,6c-1.9,0-3.4,1.5-3.4,3.4v13.3c0,1.9,1.5,3.4,3.4,3.4h38.3c1.9,0,3.4-1.5,3.4-3.4V9.4
			C123.6,7.5,122.1,6,120.2,6z M120.6,21.9c0,0.6-0.5,1.1-1.1,1.1H82.7c-0.6,0-1.1-0.5-1.1-1.1V10.1c0-0.6,0.5-1.1,1.1-1.1h8.6h4.8
			L97,9c0.6,0,1.1-0.6,1-1.2c-0.1-0.6-0.1-1.3,0.2-2c0.5-1.3,1.6-2.3,3-2.6c2.6-0.5,4.8,1.5,4.8,4c0,0.2,0,0.4,0,0.6
			c-0.1,0.6,0.4,1.2,1,1.2l1,0h1.5h10c0.6,0,1.1,0.5,1.1,1.1V21.9z"/>
		<path id="XMLID_32_" class="st0" d="M162.9,24h-10.8v4H163c2.6,0,4.6,2.1,4.6,4.6v68.8c0,2.6-2.1,4.6-4.6,4.6h-10.9v4h10.8
			c4.8,0,8.7-3.9,8.7-8.7V32.7C171.6,27.9,167.7,24,162.9,24z"/>
	</g>
</g>
<g id="DRAG" class="st1">
	<g id="XMLID_60_" class="st2">
		<g id="XMLID_76_">
			<path id="XMLID_100_" class="st10" d="M152.3,98.9H87c-0.7,0-1.2-0.6-1.2-1.2v-41c0-0.7,0.6-1.2,1.2-1.2h65.3
				c0.7,0,1.2,0.6,1.2,1.2v41C153.5,98.3,152.9,98.9,152.3,98.9z"/>
			<path id="XMLID_99_" class="st3" d="M158.2,48.9h-2.1V51h2.1c0.9,0,1.6,0.7,1.6,1.4V54h2.3v-1.4C162,50.8,160.4,48.9,158.2,48.9z
				"/>
			<path id="XMLID_98_" class="st3" d="M162.1,101.8v-1.9h-2.3v1.9c0,0.8-0.7,1.4-1.6,1.4h-1.7v2.1h1.6
				C160,105.3,162.1,103.7,162.1,101.8z"/>
			<path id="XMLID_97_" class="st3" d="M81.1,105.3h2.1v-2.1h-2.1c-0.9,0-1.6-0.7-1.6-1.4v-1.5h-2.3v1.4
				C77.2,103.4,78.9,105.3,81.1,105.3z"/>
			<rect id="XMLID_96_" x="159.7" y="58.2" class="st11" width="2.3" height="6.3"/>
			<rect id="XMLID_95_" x="119.3" y="48.9" class="st3" width="4.8" height="2.1"/>
			<rect id="XMLID_94_" x="159.7" y="68.6" class="st3" width="2.4" height="6.3"/>
			<rect id="XMLID_93_" x="159.7" y="67.6" class="st3" width="2.4" height="6.3"/>
			<rect id="XMLID_92_" x="159.7" y="57.6" class="st3" width="2.4" height="6.3"/>
			<rect id="XMLID_91_" x="159.7" y="79" class="st3" width="2.4" height="6.3"/>
			<rect id="XMLID_90_" x="159.7" y="89.4" class="st3" width="2.4" height="6.3"/>
			<rect id="XMLID_89_" x="95.6" y="58.2" class="st3" width="2.3" height="6.3"/>
			<rect id="XMLID_88_" x="95.5" y="68.6" class="st3" width="2.4" height="6.3"/>
			<rect id="XMLID_87_" x="77.3" y="79" class="st3" width="2.4" height="6.3"/>
			<rect id="XMLID_86_" x="77.3" y="89.4" class="st3" width="2.4" height="6.3"/>
			<rect id="XMLID_85_" x="120.7" y="103.1" class="st3" width="6.9" height="2.1"/>
			<rect id="XMLID_84_" x="132.6" y="103.1" class="st3" width="6.9" height="2.1"/>
			<rect id="XMLID_83_" x="144.7" y="103.1" class="st3" width="6.9" height="2.1"/>
			<rect id="XMLID_82_" x="120.7" y="48.9" class="st3" width="6.9" height="2.1"/>
			<rect id="XMLID_81_" x="132.6" y="48.9" class="st3" width="6.9" height="2.1"/>
			<rect id="XMLID_80_" x="144.7" y="48.9" class="st3" width="6.9" height="2.1"/>
			<rect id="XMLID_79_" x="109.4" y="103.1" class="st3" width="6.9" height="2.1"/>
			<rect id="XMLID_78_" x="98.5" y="103.1" class="st3" width="6.9" height="2.1"/>
			<rect id="XMLID_77_" x="87.4" y="103.1" class="st3" width="6.9" height="2.1"/>
		</g>
		<path id="XMLID_72_" class="st4" d="M117,0H87.2h-4L59.8,20.5l0,0l0,0v4.1v49.5c0,3,2.8,5.5,6.1,5.5h51.2c3.3,0,6.1-2.5,6.1-5.5
			V5.5C123.2,2.5,120.4,0,117,0z M83.2,4v16.6l-19.4-0.1L83.2,4z M117.3,75.6H65.8c-1.1,0-2-0.9-2-2l0-49.1h23.4v-3v-1V4h30.1
			c1.1,0,2,0.9,2,2v67.7C119.3,74.8,118.4,75.6,117.3,75.6z"/>
		<polyline id="XMLID_71_" class="st3" points="67.8,71.6 119.3,71.6 119.3,8 91.2,8 91.2,28.6 67.8,28.6 		"/>
		<g id="XMLID_61_">
			<g id="XMLID_62_">
				<g id="XMLID_69_">
					<path id="XMLID_70_" class="st5" d="M96.4,56.5L96.4,56.5h0.9L93,60.7l-4.3-4.3h0.9l0,0H96.4z"/>
					<path id="XMLID_68_" class="st5" d="M96.4,40.4L96.4,40.4h0.9L93,36.1l-4.3,4.3h0.9l0,0H96.4z"/>
					<path id="XMLID_67_" class="st5" d="M84.9,51.8L84.9,51.8v0.9l-4.3-4.2l4.3-4.2v0.9l0,0V51.8z"/>
					<path id="XMLID_64_" class="st5" d="M101.1,51.8L101.1,51.8v0.9l4.3-4.2l-4.3-4.2v0.9l0,0V51.8z"/>
				</g>
				<path id="XMLID_63_" class="st5" d="M93,43.7c2.6,0,4.7,2.1,4.7,4.7c0,2.6-2.1,4.7-4.7,4.7c-2.6,0-4.7-2.1-4.7-4.7
					C88.3,45.8,90.4,43.7,93,43.7L93,43.7z M93,44.8c-2,0-3.7,1.6-3.7,3.7c0,2,1.7,3.7,3.7,3.7c2,0,3.7-1.6,3.7-3.7
					C96.7,46.4,95.1,44.8,93,44.8z"/>
			</g>
		</g>
	</g>
	<g id="XMLID_56_" class="st2">
		<path id="XMLID_59_" class="st0" d="M54.9,26.5c0.7,0,1.4-0.3,1.9-0.7c0.5-0.4,0.8-1.1,0.8-1.7s-0.3-1.2-0.8-1.7
			c-0.5-0.5-1.2-0.7-1.9-0.7c-0.7,0-1.4,0.3-1.9,0.7c-0.5,0.4-0.8,1.1-0.8,1.7s0.3,1.2,0.8,1.7C53.5,26.2,54.2,26.5,54.9,26.5z"/>
		<path id="XMLID_58_" class="st0" d="M43.7,103V91.3c0-1.1-0.9-2-2-2l0,0c-1.1,0-2,0.8-2,2V103c0,1.1,0.9,2,2,2l0,0
			C42.8,104.9,43.7,104.1,43.7,103z"/>
		<path id="XMLID_101_" class="st0" d="M172.2,11h-43.1c-1.1,0-2,0.9-2,2v0c0,1.1,0.9,2,2,2h42.7c3.7,0,6.3,2.8,6.3,6.3V33h-49
			c-1.1,0-2,0.9-2,2v0c0,1.1,0.9,2,2,2h49v80h4V20.9C182.1,15.5,178.2,11,172.2,11z"/>
		<path id="XMLID_57_" class="st0" d="M53.8,33.5h-10l0-12.3c0-3.4,3.9-6.9,7.7-6.9h7.6c1.1,0,2-0.9,2-2v0c0-1.1-0.9-2-2-2h-8
			c-5.9,0-11.3,4.6-11.3,10l-0.2,58.4c0,1.1,0.9,2,2,2h0c1.1,0,2-0.9,2-2l0.1-41.2l10,0c1.1,0,2-0.9,2-2v0
			C55.8,34.3,54.9,33.5,53.8,33.5z"/>
	</g>
</g>
<g id="unlimited_2_">
	<g id="XMLID_31_">
		<g id="unlimited_1_">
			<path id="XMLID_135_" class="st3" d="M127.1,19v16c0,1.1,0.9,2,2,2h16.3c3.7,0,6.7,3,6.7,6.7V83h37V19H127.1z"/>
			<g id="XMLID_122_">
				<path id="XMLID_130_" class="st12" d="M149.8,46.4h-13.7c-1.3,0-2.3-1-2.3-2.3V30.4c0-1.3,1-2.3,2.3-2.3h13.7
					c1.3,0,2.3,1,2.3,2.3v13.7C152.1,45.4,151.1,46.4,149.8,46.4z"/>
				<path id="XMLID_139_" class="st4" d="M153.1,29.8c0-2.1-1.7-3.8-3.8-3.8h-13.4c-2.1,0-3.8,1.7-3.8,3.8V37h3v-6.2
					c0-0.4,0.4-0.8,0.8-0.8h13.4c0.4,0,0.8,0.4,0.8,0.8v7.7c1.3,1.2,2,2.9,2,4.8v3.4c1-0.7,1-1.5,1-2.5V29.8z"/>
				<path id="XMLID_140_" class="st5" d="M145.6,37c0.4-0.6,0.7-1.2,0.7-2c0-1.8-1.5-3.3-3.3-3.3s-3.3,1.5-3.3,3.3
					c0,0.7,0.3,1.4,0.7,2h5C145.5,37,145.5,37,145.6,37z M143,36.9c-1,0-1.8-0.8-1.8-1.8s0.8-1.8,1.8-1.8s1.8,0.8,1.8,1.8
					S144,36.9,143,36.9z"/>
				<path id="XMLID_126_" class="st13" d="M143,39c2.9,0,4.4,2,4.4,5h1.8c0-4-2.8-6.9-6.2-6.9c-3.4,0-6.2,2.9-6.2,6.9h1.8
					C138.6,41,140.1,39,143,39z"/>
				<path id="XMLID_125_" class="st5" d="M172.2,33.3h-11.4c-0.6,0-1.1-0.5-1.1-1.1v0c0-0.6,0.5-1.1,1.1-1.1h11.4
					c0.6,0,1.1,0.5,1.1,1.1v0C173.3,32.8,172.8,33.3,172.2,33.3z"/>
				<path id="XMLID_124_" class="st5" d="M183.1,38.5h-22.5c-0.6,0-1.1-0.5-1.1-1.1v0c0-0.6,0.5-1.1,1.1-1.1h22.5
					c0.6,0,1.1,0.5,1.1,1.1v0C184.2,38,183.7,38.5,183.1,38.5z"/>
				<path id="XMLID_123_" class="st5" d="M183.1,43.6h-22.5c-0.6,0-1.1-0.5-1.1-1.1v0c0-0.6,0.5-1.1,1.1-1.1h22.5
					c0.6,0,1.1,0.5,1.1,1.1v0C184.2,43.1,183.7,43.6,183.1,43.6z"/>
			</g>
			<g id="XMLID_113_">
				<path id="XMLID_121_" class="st12" d="M149.8,74.2h-13.7c-1.3,0-2.3-1-2.3-2.3V58.2c0-1.3,1-2.3,2.3-2.3h13.7
					c1.3,0,2.3,1,2.3,2.3v13.7C152.1,73.2,151.1,74.2,149.8,74.2z"/>
				<path id="XMLID_118_" class="st13" d="M143,59.5c-1.8,0-3.3,1.5-3.3,3.3c0,1.8,1.5,3.3,3.3,3.3c1.8,0,3.3-1.5,3.3-3.3
					C146.3,61,144.8,59.5,143,59.5z M143,64.6c-1,0-1.8-0.8-1.8-1.8c0-1,0.8-1.8,1.8-1.8c1,0,1.8,0.8,1.8,1.8
					C144.8,63.8,144,64.6,143,64.6z"/>
				<path id="XMLID_117_" class="st13" d="M143,67c2.9,0,4.4,2,4.4,5h1.8c0-4-2.8-6.9-6.2-6.9c-3.4,0-6.2,2.9-6.2,6.9h1.8
					C138.6,69,140.1,67,143,67z"/>
				<path id="XMLID_116_" class="st5" d="M172.2,61.1h-11.4c-0.6,0-1.1-0.5-1.1-1.1l0,0c0-0.6,0.5-1.1,1.1-1.1h11.4
					c0.6,0,1.1,0.5,1.1,1.1l0,0C173.3,60.6,172.8,61.1,172.2,61.1z"/>
				<path id="XMLID_115_" class="st5" d="M183.1,66.3h-22.5c-0.6,0-1.1-0.5-1.1-1.1l0,0c0-0.6,0.5-1.1,1.1-1.1h22.5
					c0.6,0,1.1,0.5,1.1,1.1l0,0C184.2,65.8,183.7,66.3,183.1,66.3z"/>
				<path id="XMLID_114_" class="st5" d="M183.1,71.4h-22.5c-0.6,0-1.1-0.5-1.1-1.1l0,0c0-0.6,0.5-1.1,1.1-1.1h22.5
					c0.6,0,1.1,0.5,1.1,1.1l0,0C184.2,70.9,183.7,71.4,183.1,71.4z"/>
			</g>
		</g>
		<g id="XMLID_107_">
			<g id="XMLID_202_">
				<path id="XMLID_205_" class="st0" d="M167.1,3h-6.5c-0.1,0-0.1,0-0.1-0.1c-0.5-2-2.3-3.4-4.4-3.4c-2.1,0-3.9,1.4-4.4,3.4
					c0,0.1-0.1,0.1-0.1,0.1h-6.5c-1.1,0-2,1-2,2.1v8c0,1.1,0.9,1.9,2,1.9h22c1.1,0,2-0.8,2-1.9v-8C169.1,4,168.2,3,167.1,3z
					 M166.1,11.5c0,0.3,0,0.5-0.4,0.5h-19.2c-0.4,0-0.4-0.2-0.4-0.5V6.7c0-0.3,0-0.7,0.4-0.7h6.7c0.3,0,0.7-0.3,0.7-1
					c0.1-1.3,1.1-2.4,2.4-2.4c1.3,0,2.3,1,2.3,2.3c0,0.4,0.1,1.1,0.7,1.1h6.4c0.4,0,0.4,0.4,0.4,0.7V11.5z"/>
				<path id="XMLID_204_" class="st0" d="M122.1,30V13c0-1.1,0.9-2,2-2H138c1,0,1.9-0.7,2.1-1.7c0.2-1.3-0.8-2.3-2-2.3h-13.5
					c-3.6,0-6.5,2.9-6.5,6.5V30c0,1.1,0.9,2,2,2h0C121.2,32,122.1,31.1,122.1,30z"/>
				<path id="XMLID_203_" class="st0" d="M187.1,7l-12.9,0c-1,0-1.9,0.7-2.1,1.7c-0.2,1.3,0.8,2.3,2,2.3h13.5c0.8,0,1.5,0.7,1.5,1.5
					V81c0,1.1-0.9,2-2,2h-33c-1.1,0-2,0.9-2,2l0,0c0,1.1,0.9,2,2,2h33c3.3,0,6-2.7,6-6V13C193.1,9.7,190.4,7,187.1,7z"/>
			</g>
			<g id="XMLID_196_">
				<path id="XMLID_199_" class="st0" d="M167.1,3h-6.5c-0.1,0-0.1,0-0.1-0.1c-0.5-2-2.3-3.4-4.4-3.4c-2.1,0-3.9,1.4-4.4,3.4
					c0,0.1-0.1,0.1-0.1,0.1h-6.5c-1.1,0-2,1-2,2.1v8c0,1.1,0.9,1.9,2,1.9h22c1.1,0,2-0.8,2-1.9v-8C169.1,4,168.2,3,167.1,3z
					 M166.1,11.5c0,0.3,0,0.5-0.4,0.5h-19.2c-0.4,0-0.4-0.2-0.4-0.5V6.7c0-0.3,0-0.7,0.4-0.7h6.7c0.3,0,0.7-0.3,0.7-1
					c0.1-1.3,1.1-2.4,2.4-2.4c1.3,0,2.3,1,2.3,2.3c0,0.4,0.1,1.1,0.7,1.1h6.4c0.4,0,0.4,0.4,0.4,0.7V11.5z"/>
				<path id="XMLID_198_" class="st0" d="M122.1,30V13c0-1.1,0.9-2,2-2H138c1,0,1.9-0.7,2.1-1.7c0.2-1.3-0.8-2.3-2-2.3h-13.5
					c-3.6,0-6.5,2.9-6.5,6.5V30c0,1.1,0.9,2,2,2h0C121.2,32,122.1,31.1,122.1,30z"/>
				<path id="XMLID_197_" class="st0" d="M187.1,7l-12.9,0c-1,0-1.9,0.7-2.1,1.7c-0.2,1.3,0.8,2.3,2,2.3h13.5c0.8,0,1.5,0.7,1.5,1.5
					V81c0,1.1-0.9,2-2,2h-33c-1.1,0-2,0.9-2,2l0,0c0,1.1,0.9,2,2,2h33c3.3,0,6-2.7,6-6V13C193.1,9.7,190.4,7,187.1,7z"/>
			</g>
		</g>
	</g>
	<g id="XMLID_27_">
		<g id="unlimited">
			<path id="XMLID_161_" class="st3" d="M86.1,52v41c0,0.6-0.3,1.2-0.8,1.6l-2.4,1.8c-0.5,0.4-0.8,1-0.8,1.6v18h62V52H86.1z"/>
			<g id="XMLID_50_">
				<path id="XMLID_105_" class="st9" d="M104.8,79.4H91.1c-1.3,0-2.3-1-2.3-2.3V63.4c0-1.3,1-2.3,2.3-2.3h13.7c1.3,0,2.3,1,2.3,2.3
					v13.7C107.1,78.4,106.1,79.4,104.8,79.4z"/>
				<path id="XMLID_102_" class="st5" d="M98,64.7c-1.8,0-3.3,1.5-3.3,3.3c0,1.8,1.5,3.3,3.3,3.3c1.8,0,3.3-1.5,3.3-3.3
					C101.3,66.2,99.8,64.7,98,64.7z M98,69.9c-1,0-1.8-0.8-1.8-1.8s0.8-1.8,1.8-1.8s1.8,0.8,1.8,1.8S99,69.9,98,69.9z"/>
				<path id="XMLID_55_" class="st5" d="M98,72c2.9,0,4.4,2,4.4,5h1.8c0-4-2.8-6.9-6.2-6.9c-3.4,0-6.2,2.9-6.2,6.9h1.8
					C93.6,74,95.1,72,98,72z"/>
			</g>
			<g id="XMLID_41_">
				<path id="XMLID_49_" class="st9" d="M104.8,107.2H91.1c-1.3,0-2.3-1-2.3-2.3V91.2c0-1.3,1-2.3,2.3-2.3h13.7c1.3,0,2.3,1,2.3,2.3
					v13.7C107.1,106.2,106.1,107.2,104.8,107.2z"/>
				<path id="XMLID_46_" class="st5" d="M98,92.5c-1.8,0-3.3,1.5-3.3,3.3c0,1.8,1.5,3.3,3.3,3.3c1.8,0,3.3-1.5,3.3-3.3
					C101.3,94,99.8,92.5,98,92.5z M98,97.6c-1,0-1.8-0.8-1.8-1.8c0-1,0.8-1.8,1.8-1.8s1.8,0.8,1.8,1.8C99.8,96.8,99,97.6,98,97.6z"
					/>
				<path id="XMLID_45_" class="st5" d="M98,100c2.9,0,4.4,2,4.4,5h1.8c0-4-2.8-6.9-6.2-6.9c-3.4,0-6.2,2.9-6.2,6.9h1.8
					C93.6,102,95.1,100,98,100z"/>
				<path id="XMLID_44_" class="st5" d="M127.2,94.1h-11.4c-0.6,0-1.1-0.5-1.1-1.1l0,0c0-0.6,0.5-1.1,1.1-1.1h11.4
					c0.6,0,1.1,0.5,1.1,1.1l0,0C128.3,93.6,127.8,94.1,127.2,94.1z"/>
				<path id="XMLID_43_" class="st5" d="M138.1,99.3h-22.5c-0.6,0-1.1-0.5-1.1-1.1l0,0c0-0.6,0.5-1.1,1.1-1.1h22.5
					c0.6,0,1.1,0.5,1.1,1.1l0,0C139.2,98.8,138.7,99.3,138.1,99.3z"/>
				<path id="XMLID_42_" class="st5" d="M138.1,104.4h-22.5c-0.6,0-1.1-0.5-1.1-1.1l0,0c0-0.6,0.5-1.1,1.1-1.1h22.5
					c0.6,0,1.1,0.5,1.1,1.1l0,0C139.2,103.9,138.7,104.4,138.1,104.4z"/>
			</g>
		</g>
		<g id="XMLID_30_">
			<path id="XMLID_33_" class="st0" d="M122.1,36h-6.5c-0.1,0-0.1,0-0.1-0.1c-0.5-2-2.3-3.4-4.4-3.4c-2.1,0-3.9,1.4-4.4,3.4
				c0,0.1-0.1,0.1-0.1,0.1h-6.5c-1.1,0-2,1-2,2.1v8c0,1.1,0.9,1.9,2,1.9h22c1.1,0,2-0.8,2-1.9v-8C124.1,37,123.2,36,122.1,36z
				 M121.1,44.5c0,0.3,0,0.5-0.4,0.5h-19.2c-0.4,0-0.4-0.2-0.4-0.5v-4.8c0-0.3,0-0.7,0.4-0.7h6.7c0.3,0,0.7-0.3,0.7-1
				c0.1-1.3,1.1-2.4,2.4-2.4c1.3,0,2.3,1,2.3,2.3c0,0.4,0.1,1.1,0.7,1.1h6.4c0.4,0,0.4,0.4,0.4,0.7V44.5z"/>
			<g id="XMLID_159_">
				<path id="XMLID_162_" class="st0" d="M142.1,40h-12.9c-1,0-1.9,0.7-2.1,1.7c-0.2,1.3,0.8,2.3,2,2.3h13.5c0.8,0,1.5,0.7,1.5,1.5
					V116h-67V99c0-1.1-0.9-2-2-2h0c-1.1,0-2,0.9-2,2v21h75V46C148.1,42.7,145.4,40,142.1,40z"/>
			</g>
		</g>
	</g>
	<g id="XMLID_109_">
		<rect id="XMLID_158_" x="31" y="62.1" class="st3" width="49.1" height="28.4"/>
		<g id="XMLID_127_">
			<path id="XMLID_129_" class="st14" d="M62.7,51h-5.1c-0.1,0-0.1,0.2-0.1,0.1c-0.4-1.6-1.8-2.6-3.5-2.6c-1.7,0-3.1,1-3.5,2.6
				c0,0.1-0.1-0.1-0.1-0.1h-5.1c-0.9,0-1.2,1.2-1.2,2v6.3c0,0.9,0.3,1.6,1.2,1.6h17.4c0.9,0,1.4-0.8,1.4-1.6V53
				C64.1,52.2,63.6,51,62.7,51z M61.9,58.1c0,0.3,0,0.4-0.3,0.4H46.4c-0.3,0-0.3-0.1-0.3-0.4v-3.8c0-0.3,0-0.6,0.3-0.6h5.3
				c0.2,0,0.5-0.2,0.6-0.8c0.1-1,0.8-1.9,1.9-1.9c1,0,1.8,0.8,1.8,1.8c0,0.3,0.1,0.9,0.6,0.9h5.1c0.3,0,0.3,0.3,0.3,0.6V58.1z"/>
			<g id="XMLID_165_">
				<path id="XMLID_166_" class="st6" d="M78.9,58h-6.4h-4.3H39.7h-3.4h-7.7c-0.9,0-1.5,0.4-1.5,1.3v53.5c0,1.1,0.9,2.3,2,2.3h49.1
					c1.1,0,2-1.2,2-2.3V58.9C80.1,58.2,79.6,58,78.9,58z"/>
				<path id="XMLID_169_" class="st0" d="M78.6,55h-6h-4.3H39.7h-3.4H29c-2.8,0-4.9,1.9-4.9,4.7v29.2c0,2.2,1.6,4.1,3.8,4.1h51.4
					c2.2,0,3.8-1.9,3.8-4.1V59.3C83.1,56.7,81.2,55,78.6,55z M80.1,87.7c0,1.1-0.9,2.3-2,2.3H29.1c-1.1,0-2-1.2-2-2.3V59.3
					c0-0.9,0.7-1.3,1.5-1.3h7.7h3.4h28.5h4.3h6.4c0.7,0,1.2,0.2,1.2,0.9V87.7z"/>
			</g>
		</g>
	</g>
	<g id="XMLID_163_">
		<g id="XMLID_164_">
			<path id="XMLID_144_" class="st4" d="M62.7,68.1c-4.6,0-7.7,3.8-10.3,7.1c-2.3,2.8-4.5,5.5-7.1,5.5c-2.7,0-4.4-2.8-4.4-4.8
				c0-1.9,1.9-4.6,4.7-4.6c2.8,0,4.3,2.3,4.4,2.4c0.5,0.7,1.4,1,2.2,0.5c0.7-0.5,1-1.4,0.5-2.2c-0.1-0.2-2.4-3.9-7-3.9
				c-4.7,0-7.9,4.1-7.9,7.8c0,3.8,3.1,8,7.6,8c4.1,0,6.9-3.4,9.6-6.7c2.5-3,4.8-5.9,7.9-5.9c1.8,0,3.1,0.6,3.7,1.9
				c0.6,1.1,0.6,2.4,0.6,2.8c0,0.3-0.1,1.5-0.7,2.6c-0.7,1.3-1.7,1.9-3.1,1.9c-2.9,0-4.5-1.9-5-2.6c-0.2-0.2-0.3-0.3-0.4-0.4
				c-0.7-0.6-1.7-0.5-2.2,0.2c-0.5,0.6-0.5,1.6,0.1,2.2c0,0,0.1,0.1,0.1,0.1c0.8,0.9,3.1,3.7,7.5,3.7c5.3,0,7-5.2,7-7.7
				c0-1.6-0.3-3-0.9-4.2C68.4,70.1,66.5,68.1,62.7,68.1z"/>
		</g>
	</g>
	<path id="XMLID_136_" class="st0" d="M78.1,51v-5.5c0-0.8,0.7-1.5,1.5-1.5h13.5c1.2,0,2.2-1.1,2-2.3C94.9,40.7,94,40,93,40H80.1
		c-3.3,0-6,2.7-6,6v5H78.1z"/>
</g>
<g id="shortcode" class="st1">
	<g id="XMLID_228_" class="st2">
		<rect id="XMLID_145_" x="43.1" y="29.6" class="st3" width="141.6" height="86.7"/>
		<path id="XMLID_242_" class="st0" d="M180,0H42.2c-4.8,0-8.7,3.9-8.7,8.7v66.9c0,1.1,0.9,2,2,2h0c1.1,0,2-0.9,2-2V9
			c0-2.8,2.2-5,5-5h137.2c2.8,0,5,2.2,5,5v108h4V8.8C188.7,4,184.8,0,180,0z"/>
		<path id="XMLID_241_" class="st0" d="M37.5,103.6V90.9c0-1.2-0.9-2.1-2-2.1l0,0c-1.1,0-2,0.9-2,2.1v12.7c0,1.2,0.9,2.1,2,2.1l0,0
			C36.6,105.7,37.5,104.8,37.5,103.6z"/>
		<circle id="XMLID_240_" class="st0" cx="50.3" cy="14.6" r="2.7"/>
		<circle id="XMLID_231_" class="st0" cx="59.1" cy="14.6" r="2.7"/>
		<circle id="XMLID_230_" class="st0" cx="67.8" cy="14.6" r="2.7"/>
		<rect id="XMLID_229_" x="35.2" y="25.6" class="st0" width="150" height="4"/>
	</g>
	<text id="XMLID_147_" transform="matrix(1 0 0 1 76.2356 84.1992)" class="st15 st16 st17">[ / ]</text>
</g>
<g id="recaptcha" class="st1">
	<g id="XMLID_148_" class="st2">
		<rect id="XMLID_155_" x="43.1" y="29.6" class="st3" width="141.6" height="86.7"/>
		<path id="XMLID_154_" class="st0" d="M180,0H42.2c-4.8,0-8.7,3.9-8.7,8.7v66.9c0,1.1,0.9,2,2,2h0c1.1,0,2-0.9,2-2V9
			c0-2.8,2.2-5,5-5h137.2c2.8,0,5,2.2,5,5v108h4V8.8C188.7,4,184.8,0,180,0z"/>
		<path id="XMLID_153_" class="st0" d="M37.5,103.6V90.9c0-1.2-0.9-2.1-2-2.1l0,0c-1.1,0-2,0.9-2,2.1v12.7c0,1.2,0.9,2.1,2,2.1l0,0
			C36.6,105.7,37.5,104.8,37.5,103.6z"/>
		<circle id="XMLID_152_" class="st0" cx="50.3" cy="14.6" r="2.7"/>
		<circle id="XMLID_151_" class="st0" cx="59.1" cy="14.6" r="2.7"/>
		<circle id="XMLID_150_" class="st0" cx="67.8" cy="14.6" r="2.7"/>
		<rect id="XMLID_149_" x="35.2" y="25.6" class="st0" width="150" height="4"/>
	</g>
	<g id="XMLID_128_" class="st2">
		<path id="XMLID_160_" class="st13" d="M130.7,75.5H91.4c-1.4,0-2.5-1.1-2.5-2.5l0,0c0-1.4,1.1-2.5,2.5-2.5h39.3
			c1.4,0,2.5,1.1,2.5,2.5l0,0C133.2,74.4,132.1,75.5,130.7,75.5z"/>
		<path id="XMLID_157_" class="st11" d="M77.8,83.2H60.1c-1.1,0-2-0.9-2-2V64.8c0-1.1,0.9-2,2-2h17.8c1.1,0,2,0.9,2,2v16.4
			C79.8,82.3,78.9,83.2,77.8,83.2z"/>
		<path id="XMLID_172_" class="st13" d="M83.2,67.2L83.2,67.2c-0.6-0.6-1.7-0.6-2.3,0l-8.7,8.1c-0.1,0.1-0.3,0.1-0.4,0L69,72.7
			c-0.6-0.6-1.7-0.6-2.3,0v0c-0.6,0.6-0.6,1.6,0,2.2l4.2,3.9c0.7,0.6,1.8,0.6,2.4,0l10-9.3C83.9,68.8,83.9,67.8,83.2,67.2z"/>
		<g id="XMLID_195_">
			<path id="XMLID_156_" class="st4" d="M141.5,108.7H80.7c-3.3,0-5.9-2.7-5.9-5.9V43.6c0-3.3,2.7-5.9,5.9-5.9h60.7
				c3.3,0,5.9,2.7,5.9,5.9v59.2C147.4,106.1,144.7,108.7,141.5,108.7z"/>
			<path id="XMLID_170_" class="st3" d="M127.4,95H92.8c-2.2,0-4-1.8-4-4V56.4c0-2.2,1.8-4,4-4h34.7c2.2,0,4,1.8,4,4V91
				C131.4,93.2,129.6,95,127.4,95z"/>
			<path id="XMLID_171_" class="st5" d="M103.4,67.6c-0.4,0-0.7,0.1-0.9,0.5c-0.8,1.2-1.3,2.6-1.6,4c-0.2,0.9-0.2,1.9-0.1,2.9
				l-2.7,0.5c-0.1-1.3-0.1-2.5,0.2-3.8c0.5-2.7,1.7-5.2,3.6-7.1c0.3-0.3,0.4-0.7,0.2-1.1l-0.9-1.9l8.8,0.8l-5.1,7.2l-0.6-1.4
				C104.1,67.8,103.8,67.6,103.4,67.6z"/>
			<path id="XMLID_174_" class="st5" d="M117.8,71.5c0.2-0.3,0.2-0.7,0-1c-0.7-1.3-1.6-2.4-2.7-3.3c-0.7-0.6-1.6-1.1-2.4-1.5
				l0.9-2.6c1.2,0.5,2.2,1.2,3.2,2c2.1,1.7,3.6,4,4.4,6.6c0.1,0.4,0.5,0.7,0.9,0.7l2,0.2l-5.1,7.3l-3.8-8l1.5,0.1
				C117.3,72,117.7,71.8,117.8,71.5z"/>
			<path id="XMLID_176_" class="st5" d="M107.4,82.5c0.1,0.3,0.4,0.6,0.8,0.6c1.4,0.2,2.9,0.1,4.3-0.3c0.9-0.2,1.8-0.6,2.6-1.1
				l1.6,2.3c-1.1,0.7-2.3,1.1-3.5,1.5c-2.6,0.7-5.4,0.6-8-0.2c-0.4-0.1-0.8,0-1.1,0.3l-1.3,1.6l-3-8.3l8.7,1.6l-1,1.1
				C107.4,81.7,107.3,82.1,107.4,82.5z"/>
		</g>
	</g>
</g>
<g id="XMLID_1_" class="st1">
	<g id="XMLID_192_" class="st2">
		<circle id="XMLID_190_" class="st18" cx="133.9" cy="22" r="20"/>
		<path id="XMLID_250_" class="st5" d="M139.1,22.2v-1.6c0-2.6-1.8-4.7-4.1-5.3v-1.6c0-0.7-0.6-1.3-1.3-1.3s-1.3,0.6-1.3,1.3v1.6
			c-2.4,0.6-4.1,2.7-4.1,5.3v1.6c0,1.7-0.7,3.4-1.9,4.6c-0.5,0.5-0.7,1.3-0.4,2c0.3,0.7,1,1.2,1.7,1.2h3.3c0,1.5,1.2,2.7,2.7,2.7
			c1.5,0,2.7-1.2,2.7-2.7h3.3c0.8,0,1.4-0.5,1.7-1.2c0.3-0.7,0.1-1.5-0.4-2C139.8,25.6,139.1,24,139.1,22.2z M133.7,31.2
			c-0.6,0-1.2-0.5-1.2-1.2h2.3C134.8,30.7,134.3,31.2,133.7,31.2z M140,28.3c0,0.1-0.1,0.2-0.3,0.2h-12.1c-0.1,0-0.2-0.1-0.3-0.2
			c0-0.1,0-0.2,0.1-0.3c1.5-1.5,2.4-3.6,2.4-5.7v-1.6c0-2.1,1.7-3.9,3.9-3.9c2.1,0,3.9,1.7,3.9,3.9v1.6c0,2.2,0.8,4.2,2.4,5.7
			C140,28,140,28.2,140,28.3z"/>
		<path id="XMLID_194_" class="st5" d="M137.9,13.4c-0.4-0.1-0.9,0.1-1,0.5c-0.1,0.4,0.1,0.9,0.5,1c2.6,0.9,4,3.7,3.1,6.3
			c-0.1,0.4,0.1,0.9,0.5,1c0.1,0,0.2,0,0.3,0c0.3,0,0.6-0.2,0.8-0.5C143.1,18.3,141.3,14.6,137.9,13.4z"/>
		<path id="XMLID_193_" class="st5" d="M144.5,15.5c-1.1-2.3-3-4-5.4-4.8c-0.4-0.1-0.9,0.1-1,0.5s0.1,0.9,0.5,1c2,0.7,3.6,2.1,4.5,4
			s1.1,4,0.4,6c-0.1,0.4,0.1,0.9,0.5,1c0.1,0,0.2,0,0.3,0c0.3,0,0.6-0.2,0.8-0.5C145.8,20.3,145.7,17.7,144.5,15.5z"/>
	</g>
	<g id="XMLID_177_" class="st2">
		<polygon id="XMLID_191_" class="st3" points="119.9,81 106.2,92.5 97,86.2 89.6,91.2 74.1,81 74.1,56.2 119.9,56.2 		"/>
		<path id="XMLID_189_" class="st0" d="M141.8,70.1c0-0.1,0-0.3-0.1-0.4c-0.1-0.5-0.4-0.9-0.9-1.2l-12.1-8.5v-9.2
			c0-1.2-1-2.2-2.2-2.2h-13.9l-11.8-8.4c-0.7-0.5-1.7-0.5-2.5,0l-11.9,8.4H72.6c-1.2,0-2.2,1-2.2,2.2v9l-12.2,8.5
			c-0.6,0.4-0.9,1.1-0.9,1.8c0,0,0,0,0,0l0.1,47.6c0,0.6,0.2,1.1,0.6,1.6c0.4,0.4,1,0.6,1.5,0.6c0,0,0,0,0,0l80.1-0.1
			c1.2,0,2.2-1,2.2-2.2L141.8,70.1z M128.8,65.3l6.9,4.9l-6.9,4.9V65.3z M99.6,44.7l5.5,3.9h-11L99.6,44.7z M74.8,53h49.7v25.1
			l-16.7,11.8l-6.8-5.4c0,0,0,0,0,0c-0.8-0.6-1.8-0.6-2.6,0l-6.8,5.4L74.8,78.2V53z M70.5,65.2v10l-7.1-5L70.5,65.2z M61.7,74.4
			l26.2,18.4l-26.1,20.6L61.7,74.4z M65.9,115.6L99.7,89l33.6,26.5L65.9,115.6z M111.4,92.7l26.1-18.4l0.1,39.1L111.4,92.7z"/>
		<text id="XMLID_179_" transform="matrix(1 0 0 1 85.4525 76.6457)" class="st5 st16 st19">@</text>
	</g>
</g>
<g id="XMLID_255_" class="st1">
	<path id="XMLID_257_" class="st20" d="M97.1,60.1c0,15,9.4,27.8,22.6,32.8c1.9,0.7,3.9,1.3,6,1.7c8.5,2.1,28.9,1.6,35.4,0.6
		c3.3-0.3-6.7-7.8-4.1-10.4c6.3-6.3,10.1-15,10.1-24.6c0-19.3-15.7-35-35-35S97.1,40.8,97.1,60.1z"/>
	<g id="XMLID_258_" class="st2">
		<text id="XMLID_270_" transform="matrix(1 0 0 1 119.884 71.8407)" class="st5 st21 st22">尾</text>
	</g>
	<path id="XMLID_256_" class="st20" d="M125.1,37.1c0,15-9.4,27.8-22.6,32.8c-1.9,0.7-3.9,1.3-6,1.7c-8.5,2.1-28.9,1.6-35.4,0.6
		c-3.3-0.3,6.7-7.8,4.1-10.4c-6.3-6.3-10.1-15-10.1-24.6c0-19.3,15.7-35,35-35S125.1,17.8,125.1,37.1z"/>
	<g id="XMLID_260_" class="st2">
		<text id="XMLID_271_" transform="matrix(1 0 0 1 76.4008 47.2336)" class="st5 st23 st24">A</text>
	</g>
</g>
<path id="XMLID_222_" class="st14" d="M59.4,120L59.4,120c-1.1,0-2-0.9-2-2V71.5c0-1.1,0.9-2,2-2h0c1.1,0,2,0.9,2,2V118
	C61.4,119.1,60.5,120,59.4,120z"/>
<path id="XMLID_243_" class="st14" d="M55.8,120.3L55.8,120.3c-0.7-0.9-0.5-2.1,0.3-2.8L98,84.6c0.9-0.7,2.1-0.5,2.8,0.3v0
	c0.7,0.9,0.5,2.1-0.3,2.8l-41.8,32.8C57.8,121.3,56.5,121.1,55.8,120.3z"/>
<path id="XMLID_245_" class="st14" d="M142.5,120.3L142.5,120.3c0.7-0.9,0.5-2.1-0.3-2.8l-41.8-32.8c-0.9-0.7-2.1-0.5-2.8,0.3v0
	c-0.7,0.9-0.5,2.1,0.3,2.8l41.8,32.8C140.6,121.3,141.8,121.1,142.5,120.3z"/>
<path id="XMLID_244_" class="st14" d="M139.9,120L139.9,120c-1.1,0-2-0.9-2-2V71.5c0-1.1,0.9-2,2-2l0,0c1.1,0,2,0.9,2,2V118
	C141.9,119.1,141,120,139.9,120z"/>
</svg>
